<svg width="128.000000" height="20.000000" viewBox="0 0 128 20" fill="none" xmlns="http://www.w3.org/2000/svg" xmlns:xlink="http://www.w3.org/1999/xlink">
	<desc>
			Created with Pixso.
	</desc>
	<defs>
		<clipPath id="clip2_321">
			<rect id="IMAGE" width="128.000000" height="20.000000" fill="white" fill-opacity="0"/>
		</clipPath>
	</defs>
	<g clip-path="url(#clip2_321)">
		<path id="Combined-Shape" d="M6.86121 0C9.98999 0 12.5143 1.6958 12.5143 4.41406C12.5143 6.27148 11.4714 7.64404 11.0605 7.64404C10.6765 7.64404 8.7005 6.45996 8.7005 6.11035C8.7005 5.97559 9.08447 5.35645 9.08447 4.7373C9.08447 3.60645 8.28809 2.79932 6.91644 2.79932C5.57172 2.79932 4.61096 3.6875 4.61096 5.00635C4.61096 6.40674 6.14771 7.24121 8.15137 8.23682C8.30841 8.31641 8.46594 8.39551 8.62341 8.47559L9.09528 8.71777C11.6056 10.0181 13.9697 11.5117 13.9697 14.2397C13.9697 17.7124 10.8954 20 6.80664 20C2.79932 20 0 18.0347 0 14.5088C0 12.2476 1.42767 10.4976 1.75641 10.4976C2.19568 10.4976 4.08954 11.79 4.08954 12.1396C4.08954 12.355 3.4306 13.0547 3.4306 14.2397C3.4306 15.9897 4.91278 17.1738 6.91644 17.1738C9.00159 17.1738 10.3194 15.9624 10.3194 14.3203C10.3194 12.7588 8.94702 11.8706 5.9281 10.4438C3.29388 9.20557 1.04291 7.88672 1.04291 4.92578C1.04291 2.15381 3.4859 0 6.86121 0ZM93.3374 0C96.6313 0 98.7172 2.20703 98.7172 5.06055C98.7172 7.88672 96.5491 10.0669 93.7498 10.8208C93.5847 10.875 93.3651 10.9019 93.2283 10.9019C92.8712 10.9019 92.0203 8.7749 92.0203 8.42529C92.0203 8.31738 92.1025 8.23682 92.2399 8.18262C94.1607 7.42871 95.3411 6.43359 95.3411 4.92578C95.3411 3.76855 94.6276 2.93408 93.2828 2.93408C90.4836 2.93408 88.453 6.56787 88.453 10.4712C88.453 14.4546 91.0872 17.0659 94.6276 17.0659C97.1873 17.0659 99.1552 15.7886 100.213 14.0713C100.185 13.7939 100.171 13.5088 100.171 13.2168C100.171 9.44824 102.642 6.62109 106.045 6.62109C107.773 6.62109 108.981 7.24121 109.832 7.99414L109.915 7.96729L109.915 7.61768C109.915 7.21387 110.189 6.97119 110.546 6.97119L112.659 6.97119C113.07 6.97119 113.318 7.21387 113.318 7.67139C113.318 8.18262 113.016 12.0859 113.016 14.2124C113.016 15.4238 113.51 16.4194 114.47 16.4194C115.812 16.4194 116.952 14.7627 117.6 13.2744L117.599 7.64453C117.599 7.24072 117.818 6.97168 118.23 6.97168L120.426 6.97168C120.865 6.97168 121.112 7.21436 121.112 7.67139C121.112 9.17871 120.974 13.0552 120.974 14.0781C120.974 15.4507 121.441 16.4199 122.566 16.4199C124.076 16.4199 125.366 14.4819 125.86 13.1094C125.915 12.9746 125.969 12.894 126.134 12.894C126.381 12.894 128 13.6201 128 13.917C128 13.9976 127.973 14.105 127.945 14.1855C127.177 16.5005 125.146 19.354 121.798 19.354C119.978 19.354 118.684 18.5864 118.048 17.1724C117.022 18.3647 115.543 19.3535 113.565 19.3535C111.589 19.3535 110.161 18.4385 110.161 16.8774L110.161 16.6079L110.052 16.5815C109.365 18.062 107.829 19.3535 105.441 19.3535C103.559 19.3535 102.061 18.4795 101.15 17.0142C99.6516 18.7046 97.269 20 94.1607 20C88.5897 20 84.8027 16.2583 84.8027 10.5244C84.8027 4.70996 88.2603 0 93.3374 0ZM54.6144 0.564941C55.0805 0.564941 55.3002 0.833984 55.3002 1.29199C55.3002 3.06885 54.9438 11.4399 54.9438 14.2397C54.9438 15.4775 55.3823 16.4194 56.4806 16.4194C57.8926 16.4194 59.0813 14.5859 59.6644 13.272L59.6636 7.64453C59.6636 7.24072 59.8832 6.97168 60.2949 6.97168L62.4905 6.97168C62.9298 6.97168 63.1763 7.21436 63.1763 7.67139C63.1763 9.17871 63.0396 13.0552 63.0396 14.0781C63.0396 15.4507 63.5058 16.4199 64.6309 16.4199C65.7994 16.4199 66.8359 15.2593 67.4741 14.0981C67.427 13.77 67.4034 13.4307 67.4034 13.082C67.4034 9.36719 70.1475 6.62158 74.237 6.62158C78.1614 6.62158 80.7134 9.36719 80.7134 12.8667C80.7134 16.0703 78.408 19.354 73.8523 19.354C71.5176 19.354 69.6785 18.4106 68.5715 16.8872C67.4969 18.2651 65.9314 19.354 63.8629 19.354C62.0474 19.354 60.755 18.5898 60.1166 17.1821C59.0428 18.4111 57.5322 19.3535 55.6566 19.3535C53.3787 19.3535 51.7874 18.3042 51.7874 16.6895L51.7874 16.4736L51.6776 16.4468C50.9918 17.8735 49.4819 19.3535 47.1219 19.3535C45.2177 19.3535 43.7354 18.4897 42.8237 17.0688C41.7516 18.3667 40.2181 19.354 38.2297 19.354C36.0063 19.354 34.6347 18.1963 34.6347 16.6084C34.6347 16.4736 34.6347 16.2583 34.6616 16.1777L34.5518 16.1504C33.8115 17.7393 32.2739 19.354 29.8041 19.354C28.0342 19.354 26.8215 18.54 26.2162 17.1567C25.1331 18.3872 23.5472 19.354 21.3519 19.354C18.3599 19.354 16.3293 17.4155 16.3293 14.5088L16.3293 9.69043L15.6158 9.69043C15.2042 9.69043 15.0122 9.55566 15.0122 9.15186L15.0122 7.64453C15.0122 7.34814 15.1489 7.13281 15.506 7.13281L16.3293 7.13281L16.3293 4.06396C16.3293 3.60693 16.5766 3.33789 16.9882 3.33789L19.0741 3.33789C19.5126 3.33789 19.7322 3.60693 19.7322 4.06396L19.7322 7.18701C20.6108 7.16016 21.653 7.13281 22.312 7.13281C22.5592 7.13281 22.7512 7.26758 22.7512 7.56396L22.7512 9.20605C22.7512 9.58252 22.5869 9.69043 22.285 9.69043C21.653 9.69043 20.6385 9.66309 19.7322 9.66309L19.7322 13.1626C19.7322 15.2085 20.2814 16.4199 22.0654 16.4199C23.9983 16.4199 25.2417 14.5146 25.7701 13.2202L25.7699 7.6709C25.7699 7.18652 26.0172 6.97119 26.4557 6.97119L28.5968 6.97119C29.063 6.97119 29.2827 7.24072 29.2827 7.64453C29.2827 9.31396 29.1459 12.0859 29.1459 13.8896C29.1459 15.5854 29.5568 16.4199 30.7925 16.4199C32.7133 16.4199 34.3598 12.6514 34.3598 8.58594L34.3598 7.6709C34.3598 7.24072 34.5518 6.97119 35.0187 6.97119L37.1868 6.97119C37.653 6.97119 37.8726 7.21387 37.8726 7.6709C37.8726 8.14746 37.7549 9.87207 37.6737 11.625L37.6495 12.1782C37.6193 12.9131 37.5984 13.6304 37.5984 14.2393C37.5984 15.4233 38.0922 16.4199 39.1083 16.4199C40.2413 16.4199 41.2197 15.2363 41.8461 14.1226C41.8136 13.8203 41.7974 13.5093 41.7974 13.1895C41.7974 9.66357 44.0753 6.62109 47.7532 6.62109C49.4543 6.62109 50.9918 7.42871 51.8419 8.0752L51.9518 8.04834L51.9518 1.26465C51.9518 0.807617 52.1714 0.564941 52.5831 0.564941L54.6144 0.564941ZM74.1818 9.31348C72.1235 9.31348 70.9708 11.1714 70.9708 13.0552C70.9708 15.1011 72.178 16.6626 74.0443 16.6626C76.048 16.6626 77.1185 14.8857 77.1185 12.7593C77.1185 10.8481 76.1301 9.31348 74.1818 9.31348ZM48.8506 9.55566C46.8469 9.55566 45.3378 11.1436 45.3378 13.3779C45.3378 15.2354 46.3531 16.4194 47.8353 16.4194C50.2507 16.4194 51.5401 12.9473 51.5401 10.7402C50.9641 10.2017 49.9757 9.55566 48.8506 9.55566ZM107.225 9.55566C105.221 9.55566 103.712 11.1436 103.712 13.4053C103.712 15.2085 104.728 16.4194 106.155 16.4194C108.734 16.4194 109.915 12.7856 109.915 10.7402C109.338 10.2017 108.35 9.55566 107.225 9.55566ZM61.4752 1.21094C62.4905 1.21094 63.3414 1.77637 63.3414 2.93359C63.3414 4.0376 62.6003 4.81836 61.3654 4.81836C60.2949 4.81836 59.5545 4.09131 59.5545 2.96045C59.5545 1.9375 60.3494 1.21094 61.4752 1.21094ZM119.41 1.21094C120.426 1.21094 121.276 1.77637 121.276 2.93359C121.276 4.0376 120.536 4.81836 119.3 4.81836C118.23 4.81836 117.489 4.09131 117.489 2.96045C117.489 1.9375 118.285 1.21094 119.41 1.21094Z" fill="#FFFFFF" fill-opacity="1.000000" fill-rule="evenodd"/>
	</g>
</svg>
