<svg width="128.000000" height="78.000000" viewBox="0 0 128 78" fill="none" xmlns="http://www.w3.org/2000/svg" xmlns:xlink="http://www.w3.org/1999/xlink">
	<desc>
			Created with Pixso.
	</desc>
	<defs>
		<clipPath id="clip2_327">
			<rect id="IMAGE" width="128.000000" height="78.000000" fill="white" fill-opacity="0"/>
		</clipPath>
	</defs>
	<g clip-path="url(#clip2_327)">
		<path id="Combined-Shape" d="M36.6457 63.4434C37.095 63.4434 37.5215 63.5024 37.9271 63.6221C38.3345 63.7402 38.7305 63.9111 39.1171 64.1357L39.1171 66.8486C38.8315 66.5996 38.5173 66.3887 38.1803 66.2119C37.8452 66.0371 37.4815 65.9512 37.095 65.9512C36.6571 65.9512 36.3144 66.0732 36.065 66.3164C35.8137 66.5581 35.6899 66.9004 35.6899 67.3354C35.6899 67.7236 35.7946 68.0542 36.0098 68.3374C36.2211 68.6172 36.4839 68.8853 36.7961 69.1416C37.1084 69.3984 37.4473 69.6514 37.8167 69.9082C38.1841 70.1646 38.5249 70.4595 38.8372 70.7979C39.1494 71.1343 39.4122 71.5278 39.6235 71.9746C39.8368 72.4233 39.9415 72.9673 39.9415 73.604C39.9415 74.2261 39.8558 74.8076 39.6787 75.3418C39.5055 75.8799 39.2446 76.3438 38.8924 76.7373C38.5439 77.1294 38.1156 77.439 37.6091 77.6636C37.1046 77.8877 36.5258 78 35.8765 78C35.4767 78 35.0597 77.9409 34.6218 77.8213C34.1858 77.7036 33.8012 77.5264 33.4775 77.2891L33.4775 74.6309C33.8012 74.8569 34.1344 75.0376 34.4733 75.1748C34.8084 75.3115 35.1835 75.3799 35.5966 75.3799C36.046 75.3799 36.4249 75.2432 36.739 74.9692C37.0513 74.6953 37.2074 74.3188 37.2074 73.8457C37.2074 73.5718 37.156 73.3398 37.0551 73.146C36.9579 72.9521 36.8285 72.7773 36.6724 72.6211C36.5162 72.4653 36.3411 72.3208 36.1488 72.1895C35.9546 72.0605 35.7585 71.9253 35.5566 71.7886C35.1587 71.5127 34.797 71.2407 34.4733 70.9653C34.1458 70.6914 33.8716 70.3892 33.647 70.0581C33.4223 69.7256 33.2491 69.3623 33.1329 68.9629C33.0129 68.5659 32.9539 68.1094 32.9539 67.5981C32.9539 67.0352 33.0339 66.5068 33.1976 66.0063C33.3595 65.5083 33.5937 65.0693 33.9002 64.687C34.2048 64.3066 34.5894 64.0063 35.054 63.7803C35.5148 63.5557 36.046 63.4434 36.6457 63.4434ZM100.984 63.4434C101.434 63.4434 101.86 63.5024 102.266 63.6221C102.671 63.7402 103.069 63.9111 103.456 64.1357L103.456 66.8486C103.168 66.5996 102.858 66.3887 102.519 66.2119C102.182 66.0371 101.818 65.9512 101.434 65.9512C100.994 65.9512 100.653 66.0732 100.402 66.3164C100.152 66.5581 100.029 66.9004 100.029 67.3354C100.029 67.7236 100.133 68.0542 100.346 68.3374C100.558 68.6172 100.821 68.8853 101.133 69.1416C101.445 69.3984 101.784 69.6514 102.153 69.9082C102.523 70.1646 102.862 70.4595 103.176 70.7979C103.488 71.1343 103.749 71.5278 103.962 71.9746C104.173 72.4233 104.282 72.9673 104.282 73.604C104.282 74.2261 104.193 74.8076 104.017 75.3418C103.844 75.8799 103.581 76.3438 103.231 76.7373C102.883 77.1294 102.454 77.439 101.948 77.6636C101.441 77.8877 100.864 78 100.215 78C99.8153 78 99.3964 77.9409 98.9585 77.8213C98.5244 77.7036 98.1417 77.5264 97.8162 77.2891L97.8162 74.6309C98.1417 74.8569 98.4711 75.0376 98.81 75.1748C99.147 75.3115 99.5221 75.3799 99.9352 75.3799C100.383 75.3799 100.763 75.2432 101.076 74.9692C101.388 74.6953 101.544 74.3188 101.544 73.8457C101.544 73.5718 101.495 73.3398 101.396 73.146C101.297 72.9521 101.165 72.7773 101.011 72.6211C100.855 72.4653 100.68 72.3208 100.487 72.1895C100.293 72.0605 100.097 71.9253 99.8972 71.7886C99.4954 71.5127 99.1356 71.2407 98.81 70.9653C98.4844 70.6914 98.2103 70.3892 97.9856 70.0581C97.759 69.7256 97.5876 69.3623 97.4715 68.9629C97.3516 68.5659 97.2925 68.1094 97.2925 67.5981C97.2925 67.0352 97.3725 66.5068 97.5363 66.0063C97.6981 65.5083 97.9323 65.0693 98.2388 64.687C98.5435 64.3066 98.928 64.0063 99.3907 63.7803C99.8534 63.5557 100.383 63.4434 100.984 63.4434ZM49.0866 63.4443C50.1604 63.4443 51.0457 63.7524 51.7464 64.3706C52.4452 64.9883 52.9459 65.7964 53.2448 66.793L50.526 67.8403C50.4898 67.6675 50.446 67.4736 50.3965 67.2622C50.3489 67.0493 50.2689 66.8516 50.1623 66.6709C50.0557 66.4902 49.9186 66.3384 49.751 66.2129C49.5816 66.0894 49.3665 66.0264 49.1037 66.0264C48.7914 66.0151 48.5249 66.0894 48.2964 66.251C48.0737 66.4126 47.8833 66.6313 47.7271 66.9048C47.571 67.1807 47.4473 67.4922 47.3502 67.8403C47.2588 68.1904 47.1864 68.5381 47.1369 68.8882C47.0874 69.2378 47.0551 69.5742 47.0417 69.8975C47.0303 70.2246 47.0246 70.4966 47.0246 70.7227C47.0246 71.084 47.0398 71.5347 47.0722 72.0708C47.1026 72.6069 47.1864 73.124 47.3254 73.6221C47.4625 74.1206 47.6757 74.5464 47.9709 74.894C48.264 75.2422 48.6677 75.4189 49.1799 75.4189C49.5283 75.4189 49.8139 75.3164 50.0328 75.1089C50.2499 74.9038 50.4193 74.6509 50.5374 74.3525C50.6573 74.0518 50.7354 73.7383 50.7716 73.4072C50.8097 73.0767 50.8287 72.7856 50.8287 72.5366L49.0466 72.5366L49.0466 69.9165L53.6199 69.9165L53.6199 71.0215C53.6199 71.7705 53.5609 72.5557 53.4428 73.3789C53.3229 74.2021 53.102 74.9551 52.7764 75.6338C52.4509 76.3145 51.992 76.8774 51.398 77.3262C50.8058 77.7764 50.0347 77.999 49.0866 77.999C48.4487 77.999 47.8833 77.8926 47.3901 77.6816C46.897 77.4707 46.4629 77.1836 46.0878 76.8203C45.7127 76.459 45.3986 76.0425 45.1416 75.5674C44.8845 75.0938 44.6751 74.5898 44.5132 74.0518C44.3514 73.5156 44.2334 72.9702 44.1572 72.415C44.0829 71.8599 44.0449 71.3198 44.0449 70.7969C44.0449 69.9868 44.1191 69.1484 44.2715 68.2812C44.42 67.4146 44.6865 66.6216 45.0654 65.9048C45.4462 65.188 45.9641 64.5967 46.6133 64.1348C47.2626 63.6748 48.0851 63.4443 49.0866 63.4443ZM114.51 63.6689L114.51 66.2866L111.68 66.2866L111.68 69.3574L114.174 69.3574L114.174 71.9756L111.68 71.9756L111.68 75.1562L114.548 75.1562L114.548 77.7764L108.889 77.7764L108.889 63.6689L114.51 63.6689ZM2.80835 63.6704C3.25769 63.6704 3.76794 63.7007 4.33722 63.7617C4.9046 63.8262 5.44531 63.9858 5.9556 64.2485C6.46967 64.5107 6.89996 64.9121 7.24838 65.4556C7.59869 65.9976 7.77386 66.7485 7.77386 67.709C7.77386 68.4961 7.61584 69.2051 7.29788 69.8345C6.97803 70.4639 6.46967 70.9717 5.76901 71.3594L8.2251 77.7764L5.28348 77.7764L2.82739 71.2642L2.78931 71.2642L2.78931 77.7764L0 77.7764L0 63.6704L2.80835 63.6704ZM23.4922 63.6694L23.4922 69.9741L23.5284 69.9741L25.855 63.6694L28.7014 63.6694L26.0968 70.1792L29.0385 77.7769L26.0968 77.7769L23.5284 70.5898L23.4922 70.5898L23.4922 77.7769L20.701 77.7769L20.701 63.6694L23.4922 63.6694ZM60.9071 63.6704C61.3564 63.6704 61.8648 63.7007 62.436 63.7617C63.0034 63.8262 63.5422 63.9858 64.0544 64.2485C64.5665 64.5107 64.9987 64.9121 65.3471 65.4556C65.6975 65.9976 65.8727 66.7485 65.8727 67.709C65.8727 68.4961 65.7127 69.2051 65.3947 69.8345C65.0768 70.4639 64.5665 70.9717 63.8678 71.3594L66.322 77.7764L63.3823 77.7764L60.9261 71.2642L60.8881 71.2642L60.8881 77.7764L58.0988 77.7764L58.0988 63.6704L60.9071 63.6704ZM76.4019 63.6704L79.7929 77.7759L76.8132 77.7759L76.2896 75.3994L73.4603 75.3994L72.9539 77.7759L70.1817 77.7759L73.4603 63.6704L76.4019 63.6704ZM121.911 63.6694L125.397 72.1816L125.433 72.1455C125.344 71.8071 125.285 71.4575 125.255 71.0962C125.224 70.7349 125.207 70.3735 125.207 70.0122L125.207 63.6694L128 63.6694L128 77.7754L125.359 77.7754L121.911 69.2632L121.873 69.3013L122.004 70.7217L122.023 71.3013L122.023 77.7754L119.23 77.7754L119.23 63.6694L121.911 63.6694ZM15.7178 63.6699L15.7178 77.7759L12.9247 77.7759L12.9247 63.6699L15.7178 63.6699ZM86.595 63.6694L90.0811 72.1816L90.1173 72.1455C90.0278 71.8071 89.9688 71.4575 89.9383 71.0962C89.9059 70.7349 89.8907 70.3735 89.8907 70.0122L89.8907 63.6694L92.6838 63.6694L92.6838 77.7754L90.043 77.7754L86.595 69.2632L86.5569 69.3013L86.6883 70.7217L86.7073 71.3013L86.7073 77.7754L83.9142 77.7754L83.9142 63.6694L86.595 63.6694ZM74.8464 67.2979L74.8102 67.2979L74.5075 69.4312L73.9115 73.1919L75.8764 73.1919L75.1643 69.4312L74.8464 67.2979ZM3.36743 65.9688L3.16437 65.9712L2.78931 65.9712L2.78931 69.73L3.2767 69.749C3.91455 69.749 4.3696 69.5586 4.64566 69.1787C4.91983 68.7983 5.05692 68.3154 5.05692 67.728C5.05692 67.4785 5.02646 67.2432 4.96362 67.0166C4.90079 66.7925 4.79416 66.6001 4.64566 66.4385C4.49524 66.2754 4.29913 66.1533 4.05353 66.0718C3.81174 65.9917 3.51282 65.9575 3.16437 65.9712L3.36743 65.9688ZM61.4672 65.9688L61.265 65.9712L60.8881 65.9712L60.8881 69.73L61.3755 69.749C62.0133 69.749 62.4684 69.5586 62.7444 69.1787C63.0186 68.7983 63.1557 68.3154 63.1557 67.728C63.1557 67.4785 63.1252 67.2432 63.0624 67.0166C62.9996 66.7925 62.8929 66.6001 62.7444 66.4385C62.594 66.2754 62.396 66.1533 62.1523 66.0718C61.9105 65.9917 61.6116 65.9575 61.265 65.9712L61.4672 65.9688ZM73.0662 59.8335C73.4546 59.8335 73.7783 59.9741 74.041 60.2534C74.3038 60.5352 74.4332 60.8677 74.4332 61.2554C74.4332 61.6299 74.2961 61.9497 74.0239 62.2197C73.7478 62.4878 73.4165 62.6206 73.0281 62.6206C72.6549 62.6206 72.3312 62.4878 72.0552 62.2197C71.781 61.9497 71.6439 61.6299 71.6439 61.2554C71.6439 60.8564 71.781 60.5181 72.0552 60.2441C72.3312 59.9702 72.6683 59.8335 73.0662 59.8335ZM76.9655 59.8335C77.352 59.8335 77.6776 59.9741 77.9365 60.2534C78.2012 60.5352 78.3306 60.8677 78.3306 61.2554C78.3306 61.6299 78.1935 61.9497 77.9175 62.2197C77.6433 62.4878 77.3139 62.6206 76.9274 62.6206C76.5523 62.6206 76.2267 62.4878 75.9507 62.2197C75.6784 61.9497 75.5394 61.6299 75.5394 61.2554C75.5394 60.8564 75.6784 60.5181 75.9507 60.2441C76.2267 59.9702 76.5657 59.8335 76.9655 59.8335ZM65.488 0C84.4819 0 99.8107 15.2183 99.9179 34.1836C99.9421 38.583 99.1386 42.791 97.6555 46.6602C97.2804 47.6484 96.8558 48.6147 96.3931 49.5537L91.4238 45.6523L88.2613 48.2153C88.0043 48.4243 87.673 48.5195 87.3417 48.4814L82.6351 47.9321C82.6122 47.9282 82.5894 47.9263 82.5666 47.9243C82.321 47.9111 82.0772 47.9683 81.8678 48.0938C81.8526 48.1011 81.8354 48.1128 81.8221 48.1221L77.8581 50.6909C77.2869 51.0596 76.5196 50.8979 76.1521 50.3237L73.9702 46.9414L71.9729 48.6182L77.1726 53.3374C77.1803 53.3452 77.186 53.3506 77.1936 53.3584C77.799 53.9287 77.8371 54.8794 77.2755 55.4956C76.71 56.1191 75.7447 56.1665 75.1183 55.6021C75.1164 55.6021 75.1164 55.6021 75.1164 55.6001L73.2353 53.8926L70.128 55.4233C70.1242 55.4248 70.1185 55.4287 70.1128 55.4307C69.633 55.6587 69.0637 55.5562 68.6962 55.1738L68.6867 55.1646L67.0188 53.3945C66.6666 53.022 66.1201 52.9077 65.648 53.1035L62.0818 54.5864C61.623 54.7769 61.0937 54.6719 60.7396 54.3223L57.4286 51.0332C57.0725 50.6772 56.5318 50.5767 56.0673 50.7764L52.2689 52.4307C51.8576 52.6074 51.3797 52.5483 51.0237 52.2764L47.8973 49.8657C47.4461 49.5137 46.8121 49.5215 46.3666 49.8809L43.3354 52.3335C42.8138 52.7539 42.0541 52.6831 41.6219 52.1777C41.6124 52.168 41.6067 52.1606 41.601 52.1509L38.5889 48.4302L35.3369 50.9854C34.8324 50.0786 34.3697 49.145 33.9489 48.1885C32.0907 43.9639 31.0606 39.2925 31.0606 34.3813C31.0606 15.3931 46.4751 0 65.488 0ZM53.9405 36.3794L40.9936 46.5439L42.0541 47.854C42.0598 47.8579 42.0655 47.8652 42.0693 47.8711C42.4977 48.3809 43.2555 48.4585 43.7791 48.0439C43.781 48.0425 43.7848 48.0405 43.7886 48.0366L46.3247 45.9868C46.7664 45.6274 47.4004 45.6221 47.8536 45.9697L51.4597 48.7554C51.8176 49.0288 52.2955 49.0879 52.7068 48.9092L56.7527 47.1484C57.2153 46.9473 57.7542 47.0498 58.1121 47.4053L61.4478 50.7173C61.802 51.0693 62.3313 51.1719 62.7901 50.9814L66.4229 49.4702C66.8932 49.2764 67.4377 49.3901 67.788 49.7573L67.7937 49.7627L69.3607 51.4248C69.3664 51.4302 69.3683 51.4341 69.374 51.438C69.7472 51.8203 70.3222 51.9209 70.802 51.6851L60.5911 42.4165L57.9464 40.0166L53.9405 36.3794ZM83.2006 39.1899L76.3311 44.9585L77.0622 46.0933C77.4297 46.6655 78.1951 46.8311 78.7682 46.4585L81.0815 44.9585C81.0929 44.9526 81.1062 44.9429 81.1158 44.9375C81.3309 44.8081 81.5784 44.749 81.824 44.7627L81.8983 44.7681L86.4183 45.2988C86.7477 45.3384 87.0789 45.2397 87.3379 45.0322L88.962 43.7168L83.2006 39.1899ZM65.488 24.9717C60.3607 24.9717 56.1739 29.0864 56.0692 34.1836L60.2407 37.9692L62.415 39.9429L66.5809 43.7261C71.2646 43.1846 74.9127 39.2012 74.9127 34.3813C74.9127 29.1929 70.684 24.9717 65.488 24.9717ZM53.4626 32.8545L47.4214 32.8545C46.5779 32.8545 45.8906 33.5391 45.8906 34.3813C45.8906 35.2256 46.5779 35.9082 47.4214 35.9082L49.5919 35.9082L53.4626 32.8716L53.4626 32.8545ZM83.5566 32.8545L79.0461 32.8545C78.2008 32.8545 77.5173 33.5391 77.5173 34.3813C77.5173 35.2256 78.2008 35.9082 79.0461 35.9082L83.5566 35.9082C83.9793 35.9082 84.362 35.7368 84.6381 35.4614C84.916 35.1855 85.0855 34.8018 85.0855 34.3813C85.0855 33.5391 84.402 32.8545 83.5566 32.8545ZM79.3451 20.5435C78.7472 19.9468 77.7781 19.9468 77.1841 20.5435L73.9911 23.7285C73.3971 24.3252 73.3971 25.291 73.9911 25.8882C74.5909 26.4854 75.5581 26.4854 76.1559 25.8901L79.347 22.7017C79.9429 22.1064 79.9429 21.1406 79.347 20.5454L79.3451 20.5435ZM53.7958 20.5454C53.198 19.9468 52.2308 19.9468 51.6329 20.5435C51.037 21.1406 51.037 22.1064 51.631 22.7017L54.8221 25.8882C55.1191 26.1865 55.5132 26.335 55.9035 26.335C56.2938 26.335 56.6841 26.1865 56.985 25.8882C57.5809 25.291 57.5809 24.3252 56.985 23.7285L53.7958 20.5454ZM65.488 14.813C64.6446 14.813 63.9592 15.4956 63.9592 16.3398L63.9592 20.8423C63.9592 21.2661 64.1324 21.6465 64.4085 21.9219C64.6846 22.1997 65.0654 22.3706 65.488 22.3706C66.3334 22.3706 67.0169 21.6865 67.0169 20.8423L67.0169 16.3398C67.0169 15.4956 66.3334 14.813 65.488 14.813Z" fill="#FFFFFF" fill-opacity="1.000000" fill-rule="evenodd"/>
	</g>
</svg>
