<svg width="128.000000" height="36.000000" viewBox="0 0 128 36" fill="none" xmlns="http://www.w3.org/2000/svg" xmlns:xlink="http://www.w3.org/1999/xlink">
	<desc>
			Created with Pixso.
	</desc>
	<defs>
		<clipPath id="clip2_330">
			<rect id="IMAGE" width="128.000000" height="36.000000" fill="white" fill-opacity="0"/>
		</clipPath>
	</defs>
	<g clip-path="url(#clip2_330)">
		<path id="Combined-Shape" d="M52.9924 0.0214844C53.051 0.0810547 53.0655 0.168457 53.0357 0.286133C53.0068 0.549805 52.9482 0.960938 52.8597 1.51758C56.5673 1.45898 59.4358 1.59131 61.4659 1.91357C61.6717 1.94287 61.7151 2.06104 61.5986 2.26611C61.2747 2.82373 60.6855 3.0874 59.8328 3.05762C57.6853 2.96924 55.3014 3.01367 52.6829 3.18994C52.2417 8.17676 52.0215 13.8232 52.0215 20.1294C52.0215 25.4692 52.2119 29.708 52.5945 32.8457C55.8608 32.7573 56.2238 32.8423 58.1656 33.165C58.4011 33.1938 58.4598 33.3115 58.3425 33.5166C58.0186 34.0737 57.4447 34.3525 56.6208 34.3525C53.9726 34.3237 53.3877 34.4722 50.3883 34.7812C48.2782 35 46.2914 35.2808 44.2034 35.9561C44.0266 36.0146 43.9092 36.0146 43.8497 35.9561C43.8208 35.8975 43.8208 35.7798 43.8497 35.6045C44.1439 34.4307 44.7032 33.7261 45.5271 33.4922C47.3507 32.9644 48.6489 32.9609 50.9613 32.8896C50.6969 32.5669 50.5354 32.186 50.4767 31.7456C50.2404 29.6631 50.1239 26.7734 50.1239 23.0781C50.1239 14.9819 50.4912 8.39648 51.2266 3.32227C48.2842 3.55664 45.607 3.99658 43.1942 4.6416C42.9885 4.70117 42.8558 4.70117 42.7972 4.6416C42.7088 4.58301 42.6943 4.46631 42.753 4.29004C43.0463 3.17529 43.5912 2.51514 44.3862 2.31006C45.8569 1.92871 48.2399 1.66504 51.536 1.51758C51.7707 0.755371 52.183 0.257324 52.7713 0.0214844C52.8887 -0.00732422 52.9626 -0.00732422 52.9924 0.0214844ZM11.4752 0.814453C13.9755 0.784668 15.8297 1.97314 17.0361 4.37842C17.9484 6.16699 18.3453 8.11816 18.228 10.23C18.0801 12.7534 17.2861 14.2197 15.845 14.6299C15.6682 14.689 15.55 14.7026 15.4922 14.6738C15.4327 14.6152 15.4327 14.4839 15.4922 14.2788C15.7855 13.1104 15.9335 11.8379 15.9335 10.4639C15.9335 8.18506 15.55 6.24072 14.7857 4.63281C13.9619 2.87891 12.8882 2.03174 11.5636 2.08936C9.68048 2.14941 7.73871 3.78857 5.73743 7.01025C3.53125 10.6431 2.38354 14.7876 2.29596 19.4438C2.23645 23.2227 2.91315 26.2773 4.32532 28.6055C5.73743 30.9336 7.65027 32.0688 10.063 32.0093C12.0048 31.9795 13.7043 31.1372 15.1606 29.48C16.6127 27.8281 18.3858 25.251 18.4241 21.8828C18.5351 16.1553 18.9822 11.5815 19.7634 8.16162C19.9692 7.25293 20.3662 6.69531 20.9554 6.49023C21.1322 6.43066 21.235 6.43066 21.2648 6.49023C21.2648 6.51953 21.2495 6.60693 21.2206 6.75342C20.4844 10.8608 20.1171 16.522 20.1171 23.7373L20.1171 27.3896C20.7394 24.3687 21.6151 21.8457 22.7433 19.8213C23.0102 19.3232 23.3214 19.0737 23.6776 19.0737C23.9148 19.0737 24.1826 19.1919 24.4785 19.4258C25.0718 19.895 25.3694 20.7173 25.3694 21.8906C25.3099 27.082 25.7069 29.8091 26.5605 30.0737C26.9142 30.1914 27.2959 29.8755 27.7083 29.1279C27.9191 28.7437 28.09 28.3149 28.2242 27.8423C28.1843 27.4668 28.158 27.0684 28.1495 26.6421C28.1197 24.5596 28.3544 22.7407 28.8551 21.186C29.0609 20.541 29.4434 20.1597 30.0028 20.042C30.1201 20.042 30.2239 20.1006 30.3123 20.2183C29.9288 22.0361 29.7384 23.8696 29.7384 25.7173C29.7384 28.8853 30.0912 30.5874 30.7969 30.8223C31.2092 30.9688 31.7023 30.6016 32.2762 29.7222C32.85 28.8423 33.2538 27.7266 33.4893 26.3774C33.497 26.3403 33.5055 26.3071 33.514 26.2773C33.293 24.9111 33.1799 23.3052 33.1799 21.4497C33.1799 18.8394 33.4298 15.9355 33.9306 12.7383C34.666 8.30908 35.6368 6.09424 36.8433 6.09424C37.225 6.09424 37.5939 6.3291 37.9468 6.79785C38.7416 7.79541 39.1378 9.45312 39.1378 11.7695C39.1378 14.0571 38.7706 16.3896 38.0352 18.7656C37.2411 21.2295 36.2541 22.9897 35.0783 24.0469C35.3129 28.5049 36.0637 30.7339 37.3295 30.7339C37.8873 30.7339 38.4764 30.3154 39.0945 29.4805C39.6335 28.7505 40.0654 27.8506 40.4029 26.7979C40.1206 25.3237 39.9761 23.5474 39.9761 21.4497C39.9761 18.8394 40.2261 15.9355 40.7268 12.7383C41.4622 8.30908 42.4323 6.09424 43.6395 6.09424C44.022 6.09424 44.3901 6.3291 44.743 6.79785C45.537 7.79541 45.9349 9.45312 45.9349 11.7695C45.9349 14.0571 45.5668 16.3896 44.8314 18.7656C44.0365 21.2295 43.0511 22.9897 41.8745 24.0469C42.11 28.5049 42.8599 30.7339 44.1249 30.7339C44.6835 30.7339 45.2726 30.3154 45.8907 29.4805C46.5088 28.6431 46.9942 27.5952 47.347 26.3345C47.4354 26.0698 47.5239 26.041 47.6115 26.2451C47.7585 26.5098 47.7883 27.0376 47.6998 27.8296C47.6115 28.8271 47.3173 29.7222 46.8174 30.5137C46.2282 31.5103 45.4631 32.0098 44.5228 32.0098C44.2575 32.0098 43.9922 31.9653 43.7278 31.8784C42.4076 31.5063 41.4401 30.3545 40.8169 28.438C40.6783 29.1929 40.4165 29.8862 40.0212 30.5137C39.432 31.5103 38.6677 32.0098 37.7257 32.0098C37.4613 32.0098 37.1969 31.9653 36.9316 31.8784C35.5604 31.4917 34.5673 30.2661 33.9484 28.2144C33.8702 29.165 33.6296 29.9829 33.2249 30.668C32.6953 31.563 32.033 32.0098 31.239 32.0098C31.0323 32.0098 30.8122 31.9653 30.5767 31.8784C29.7325 31.5767 29.1102 30.9238 28.7054 29.9253C28.3799 30.7856 27.8128 31.2173 27.0017 31.2173C26.796 31.2173 26.5894 31.1738 26.3845 31.0859C24.9129 30.5874 24.0449 29.4575 23.7805 27.6978C23.6036 26.4951 23.5152 24.3535 23.5152 21.2734C23.4557 20.8638 23.3503 20.8188 23.2015 21.1421C21.6788 24.3984 20.7836 27.9624 20.5142 31.8335C20.4852 32.1562 20.3416 32.2739 20.0823 32.186C19.1615 31.8623 18.6582 31.1152 18.5723 29.9424C18.5087 29.168 18.4623 28.3164 18.433 27.3887C17.8904 28.7876 17.1089 30.0127 16.2421 30.9092C14.83 32.3765 13.0488 33.168 10.9022 33.2856C8.07709 33.4326 5.62012 32.4204 3.53125 30.25C1.20691 27.8154 0.0294189 24.4565 0.000488281 20.1729C-0.0292358 14.9233 1.23578 10.3325 3.79651 6.40186C6.14978 2.73486 8.70959 0.873047 11.4752 0.814453ZM96.0933 9.8335C96.2098 9.80469 96.2838 9.80469 96.3135 9.8335C96.3424 9.86279 96.3424 9.95117 96.3135 10.0977C96.1069 11.1538 95.8867 12.6499 95.6512 14.5859C98.3284 14.5273 100.697 14.6646 102.758 14.9961C102.904 15.0264 102.934 15.1182 102.845 15.269C102.551 15.6934 102.124 15.8916 101.566 15.8623C99.5356 15.7739 97.519 15.7739 95.5186 15.8623C95.2542 18.3911 95.0918 20.8052 95.034 23.1011C94.915 28.1021 95.4013 30.6016 96.4904 30.6016C96.9316 30.6016 97.4017 30.2495 97.9025 29.5454C98.3233 28.9531 98.6489 28.1704 98.8827 27.2026C98.9201 26.9238 98.9592 26.6372 99.0051 26.334C99.3282 24.2217 99.5195 22.77 99.579 21.9775C98.6667 21.5088 98.24 20.6729 98.2986 19.4692C98.3284 18.6489 98.5052 17.9888 98.8283 17.4902C99.0936 17.0791 99.3868 16.8735 99.7116 16.8735C100.417 16.8735 100.77 18.2368 100.77 20.9653C102.211 21.0542 103.507 20.3203 104.654 18.7651C104.831 18.5015 105.052 18.5015 105.316 18.7651C105.757 19.2354 105.978 19.6899 105.978 20.1299C105.978 20.3354 105.934 20.5552 105.846 20.79C104.786 23.1074 104.257 25.5566 104.257 28.1377C104.257 30.0732 104.654 31.042 105.449 31.042C106.462 31.042 107.343 29.832 108.09 27.4204C108.072 27.1694 108.058 26.9126 108.053 26.6416C108.023 24.5591 108.258 22.7412 108.759 21.1855C108.964 20.5405 109.347 20.1592 109.906 20.0415C110.023 20.0415 110.127 20.1011 110.215 20.2178C109.832 22.0366 109.642 23.8701 109.642 25.7178C109.642 28.8857 109.994 30.5879 110.701 30.8218C111.112 30.9692 111.605 30.6016 112.179 29.7217C112.527 29.1885 112.804 28.5581 113.028 27.8525C112.891 27.2969 112.819 26.7036 112.819 26.0703C112.819 25.5127 112.877 24.9414 112.995 24.353C113.318 22.5352 113.863 21.0977 114.628 20.0415C115.334 19.103 116.099 18.6338 116.923 18.6338C117.305 18.6338 117.673 18.7515 118.027 18.9854C119.026 19.6899 119.527 20.7017 119.527 22.0215C119.527 22.4917 119.468 22.9751 119.35 23.4731C119.055 24.7056 118.46 25.688 117.563 26.4219C116.666 27.1553 115.716 27.5518 114.716 27.6094C114.893 29.2817 115.349 30.2495 116.084 30.5142C116.29 30.6016 116.526 30.6455 116.791 30.6455C117.644 30.6455 118.505 30.2573 119.373 29.48C119.997 28.9209 120.502 28.2266 120.89 27.4009C120.856 27.2661 120.814 27.1016 120.763 26.9062C120.527 25.9668 120.601 25.293 120.984 24.8813C121.16 24.7056 121.307 25.0132 121.425 25.8057C122.189 21.8452 123.248 19.2354 124.602 17.9741C124.866 17.71 125.146 17.5776 125.44 17.5776C125.794 17.5776 126.131 17.7539 126.456 18.1055C126.632 18.3105 126.602 18.5015 126.368 18.6777C125.955 19.0293 125.75 19.6016 125.75 20.3931C125.75 21.6255 126.205 23.269 127.118 25.3218C127.706 26.7007 128 27.8594 128 28.7969C128 29.7656 127.691 30.5352 127.074 31.1074C126.456 31.6797 125.764 31.9658 124.999 31.9658C123.499 31.9658 122.292 30.9531 121.381 28.9302C121.321 29.0767 121.204 29.2378 121.027 29.4141C121.004 29.4316 120.984 29.4409 120.964 29.4531C120.723 29.8936 120.43 30.2861 120.079 30.6245C119.299 31.3711 118.38 31.7456 117.32 31.7456C116.791 31.7456 116.261 31.6431 115.731 31.438C114.996 31.1445 114.363 30.5728 113.834 29.7217C113.767 29.6206 113.706 29.5156 113.646 29.4116C113.523 29.8701 113.352 30.2905 113.128 30.6675C112.598 31.5625 111.936 32.0093 111.142 32.0093C110.935 32.0093 110.714 31.9658 110.48 31.8779C109.505 31.5293 108.823 30.7168 108.434 29.4385C107.944 31.3872 107.066 32.3608 105.802 32.3608C104.654 32.3608 103.786 31.7305 103.197 30.4702C102.726 29.5015 102.492 28.4019 102.492 27.1694C102.492 25.5269 102.83 23.7231 103.507 21.7578C102.8 22.0815 101.991 22.2417 101.079 22.2417L100.726 22.2417C100.696 22.8013 100.594 24.1421 100.417 26.2627C100.269 28.0308 100.196 29.4155 100.196 30.416C100.196 31.1821 100.24 31.8594 100.329 32.4482C100.358 32.5957 100.329 32.6841 100.24 32.7134C100.181 32.772 100.079 32.772 99.9318 32.7134C99.182 32.4736 98.7654 31.8169 98.6736 30.7524C98.1932 31.4414 97.5845 31.7896 96.8431 31.7896C96.6366 31.7896 96.4164 31.7603 96.1809 31.7017C94.9745 31.4077 94.1507 30.5571 93.7095 29.1494C93.3566 27.9468 93.224 26.0107 93.3124 23.3418C93.3711 20.9077 93.621 18.4136 94.0623 15.8623C92.9741 15.9492 91.885 16.0967 90.7968 16.3022C90.6497 16.3311 90.5613 16.3022 90.5324 16.2139C90.4738 16.1553 90.4738 16.0815 90.5324 15.9937C90.6497 15.3188 91.0909 14.9385 91.8561 14.8491C92.3857 14.7915 93.1798 14.7334 94.2391 14.6738C94.5919 12.9429 94.8861 11.6821 95.1216 10.8896C95.2687 10.3613 95.5917 10.0098 96.0933 9.8335ZM74.0586 6.00586C74.1759 5.97705 74.2499 5.97705 74.2788 6.00586C74.3383 6.03516 74.3519 6.10938 74.323 6.2251C73.2935 11.5352 72.8071 17.2412 72.8666 23.3418C72.8956 25.1016 72.9551 26.4653 73.0435 27.4341C73.2203 29.4878 73.5579 30.6167 74.0586 30.8218C74.4114 30.9692 74.8229 30.6167 75.2939 29.7656C75.5336 29.3325 75.7385 28.8267 75.9094 28.2505C75.8261 27.5991 75.7793 26.8779 75.7793 26.0703C75.7793 24.0166 76.0446 22.0078 76.5734 20.0415C76.8089 19.1616 77.2203 18.6777 77.8095 18.5898C77.9566 18.561 78.0594 18.561 78.1182 18.5898C78.1479 18.6191 78.1479 18.7075 78.1182 18.854C77.7364 20.8188 77.5451 22.9751 77.5451 25.3218C77.5451 27.229 77.7058 28.6216 78.0306 29.5015C78.295 30.2354 78.6929 30.6016 79.2216 30.6016C80.0455 30.6016 80.6193 29.1206 80.9432 26.1577L81.5613 20.6577C81.7084 19.8076 82.1641 19.293 82.9292 19.1177C83.0763 19.0889 83.1791 19.103 83.2378 19.1616C83.2676 19.1914 83.2676 19.2798 83.2378 19.4263C82.9139 21.8013 82.7532 23.9575 82.7532 25.894C82.7532 28.9155 83.1639 30.4253 83.9885 30.4253C84.3124 30.4253 84.6576 30.0371 85.0257 29.2598C85.2773 28.7275 85.4729 28.1113 85.6217 27.4204C85.5876 27.2832 85.5435 27.1118 85.4891 26.9062C85.2535 25.9668 85.3275 25.293 85.7092 24.8813C85.8861 24.7056 86.0331 25.0132 86.1514 25.8057C86.9165 21.8452 87.9749 19.2354 89.3284 17.9741C89.5936 17.71 89.8734 17.5776 90.1675 17.5776C90.5203 17.5776 90.8578 17.7539 91.1826 18.1055C91.3586 18.3105 91.3289 18.5015 91.0942 18.6777C90.6819 19.0293 90.4761 19.6016 90.4761 20.3931C90.4761 21.6255 90.9318 23.269 91.8441 25.3218C92.4324 26.7007 92.7265 27.8594 92.7265 28.7969C92.7265 29.7656 92.4179 30.5352 91.8007 31.1074C91.1826 31.6797 90.4906 31.9658 89.7263 31.9658C88.3014 31.9658 87.1418 31.0513 86.2482 29.2275C85.9796 30.8447 85.2723 31.6577 84.1212 31.6577C82.9139 31.6577 82.0468 30.8218 81.5171 29.1494C81.1345 30.4116 80.5309 31.2769 79.7071 31.7456C79.3542 31.9507 78.9717 32.0532 78.5602 32.0532C77.9124 32.0532 77.3828 31.8042 76.9713 31.3057C76.774 31.0581 76.6023 30.7656 76.4543 30.4268C76.0497 31.5107 75.4274 32.0532 74.5883 32.0532C74.3817 32.0532 74.1759 32.0244 73.9702 31.9658C72.558 31.4966 71.6603 30.1768 71.2777 28.0063C70.8654 30.6167 69.8214 31.9219 68.144 31.9219C66.9376 31.9219 66.0109 31.3916 65.364 30.3325C65.3062 30.2397 65.2534 30.1411 65.2016 30.043C65.1633 30.1304 65.1225 30.2139 65.0775 30.2939C64.6804 30.998 64.1431 31.3496 63.4664 31.3496C61.7303 31.3496 60.6863 30.1914 60.3327 27.873C60.1567 26.6719 60.0683 24.5293 60.0683 21.4492C60.0088 21.0391 59.9059 20.9951 59.7597 21.3169C58.288 24.5449 57.3758 28.0063 57.023 31.7017C56.9932 32.0244 56.8606 32.1558 56.626 32.0972C55.7137 31.9219 55.2283 31.4521 55.1696 30.6895C55.0217 29.1938 54.9928 27.3018 55.0812 25.0132C55.1696 22.5493 55.3456 20.6289 55.6109 19.25C55.7579 18.5166 56.1405 18.0615 56.7578 17.8853C56.9048 17.8564 57.0077 17.8564 57.0672 17.8853C57.1259 17.915 57.1403 18.0029 57.1114 18.1499C56.6991 20.9375 56.5665 24.105 56.7144 27.6538C57.3903 24.4268 58.2583 21.875 59.3184 19.9976C59.6118 19.4692 59.9212 19.2061 60.2451 19.2061C60.745 19.2061 61.1718 19.5 61.5246 20.0854C61.7899 20.5264 61.9225 21.1855 61.9225 22.0654C61.863 27.2578 62.26 29.9717 63.1136 30.2056C63.5251 30.3232 63.9374 29.9795 64.3497 29.1714C64.4688 28.9375 64.5674 28.6895 64.6549 28.4351C64.569 27.98 64.5257 27.4951 64.5257 26.978C64.5257 26.1831 64.6141 25.3306 64.7901 24.4175C65.1718 22.4751 65.7755 20.9604 66.6001 19.8711C67.4231 18.7822 68.2622 18.2368 69.1157 18.2368C69.9098 18.2368 70.601 18.7363 71.1893 19.7339C71.543 14.4536 72.1755 10.1572 73.0877 6.84131C73.205 6.43115 73.5289 6.15332 74.0586 6.00586ZM69.6326 19.5137C69.1276 19.3975 68.5402 19.9541 67.8719 21.1855C67.2029 22.418 66.7498 23.8701 66.5125 25.5425C66.4233 26.1875 66.379 26.7891 66.379 27.3452C66.379 28.4614 66.5347 29.3335 66.8467 29.9634C67.1587 30.5947 67.5081 30.9253 67.894 30.9531C68.5479 31.0132 69.2161 30.2783 69.9005 28.7539C70.6418 27.0527 70.9835 25.1177 70.9249 22.9453C70.8943 21.9487 70.7311 21.1128 70.4343 20.4375C70.1963 19.8813 69.9293 19.5728 69.6326 19.5137ZM124.293 20.6138C123.645 21.6411 122.896 23.9287 122.042 27.478C122.512 28.4751 123.116 29.2676 123.852 29.853C124.499 30.3809 125.102 30.6455 125.661 30.6455C126.279 30.6455 126.588 30.3091 126.588 29.6343C126.588 29.0469 126.191 27.8301 125.396 25.9814C124.602 24.1338 124.205 22.6675 124.205 21.5815C124.205 21.23 124.234 20.9077 124.293 20.6138ZM89.0198 20.6138C88.3719 21.6411 87.6221 23.9287 86.7694 27.478C87.2396 28.4751 87.8423 29.2676 88.5786 29.853C89.2255 30.3809 89.8283 30.6455 90.3877 30.6455C91.0058 30.6455 91.3144 30.3091 91.3144 29.6343C91.3144 29.0469 90.9174 27.8301 90.1233 25.9814C89.3284 24.1338 88.9314 22.6675 88.9314 21.5815C88.9314 21.23 88.9603 20.9077 89.0198 20.6138ZM117.497 19.8213C117.026 19.7051 116.496 20.189 115.908 21.2729C115.261 22.4468 114.863 23.8115 114.716 25.3662C114.658 26.0405 114.643 26.5391 114.673 26.8618C115.731 26.627 116.585 25.8794 117.232 24.6177C117.761 23.5913 118.027 22.4917 118.027 21.3169C118.027 20.4092 117.85 19.9092 117.497 19.8213ZM37.1527 7.89795C36.8279 7.72168 36.4462 8.76318 36.005 11.021C35.5637 13.2808 35.2687 15.7456 35.1225 18.4136C35.063 19.5874 35.0341 21.0537 35.0341 22.8135C36.7404 20.1157 37.5939 16.2295 37.5939 11.1543C37.5939 9.12939 37.446 8.04541 37.1527 7.89795ZM43.9489 7.89795C43.6241 7.72168 43.2424 8.76318 42.8012 11.021C42.36 13.2808 42.0649 15.7456 41.9187 18.4136C41.8592 19.5874 41.8303 21.0537 41.8303 22.8135C43.5366 20.1157 44.3901 16.2295 44.3901 11.1543C44.3901 9.12939 44.2422 8.04541 43.9489 7.89795ZM30.1354 16.918C30.6939 16.8296 31.0178 17.1377 31.1063 17.8418C31.1649 18.2529 31.0765 18.6045 30.8419 18.8979C30.6055 19.1919 30.3267 19.3677 30.0027 19.4258C29.6788 19.4844 29.4144 19.4189 29.2087 19.2285C29.0021 19.0376 28.9281 18.7515 28.9876 18.3696C29.105 17.4902 29.4884 17.0063 30.1354 16.918ZM110.866 16.918C111.423 16.8296 111.747 17.1377 111.836 17.8418C111.894 18.2529 111.806 18.6045 111.571 18.8979C111.336 19.1919 111.056 19.3677 110.733 19.4258C110.409 19.4844 110.144 19.4189 109.938 19.2285C109.732 19.0376 109.658 18.7515 109.718 18.3696C109.834 17.4902 110.218 17.0063 110.866 16.918Z" fill="#FFFFFF" fill-opacity="1.000000" fill-rule="evenodd"/>
	</g>
</svg>
