<svg width="128.000000" height="32.000000" viewBox="0 0 128 32" fill="none" xmlns="http://www.w3.org/2000/svg" xmlns:xlink="http://www.w3.org/1999/xlink">
	<desc>
			Created with Pixso.
	</desc>
	<defs>
		<clipPath id="clip2_324">
			<rect id="IMAGE" width="128.000000" height="32.000000" fill="white" fill-opacity="0"/>
		</clipPath>
	</defs>
	<g clip-path="url(#clip2_324)">
		<path id="Combined-Shape" d="M9.59607 16.8169L9.59607 20.0786L4.12476 20.0786C3.9906 20.0786 3.90125 20.1914 3.90125 20.3262L3.90125 22.5527C3.90125 22.6431 3.9906 22.7554 4.12476 22.7554L8.026 22.7554C9.07935 22.7554 9.79724 23.4746 9.79724 24.5322L9.79724 30.2222C9.79724 31.2798 9.07935 32 8.026 32L0 32L0 28.7153L5.67249 28.7153C5.82898 28.7153 5.91846 28.6265 5.91846 28.5132L5.91846 26.3091C5.91846 26.1963 5.82898 26.1064 5.67249 26.1064L1.77136 26.1064C0.717896 26.1064 0 25.3872 0 24.3296L0 18.5942C0 17.5371 0.717896 16.8169 1.77136 16.8169L9.59607 16.8169ZM23.0486 16.8174L23.0486 20.1016L19.6177 20.1016L19.6177 31.9995L15.7166 31.9995L15.7166 20.1016L12.2865 20.1016L12.2865 16.8174L23.0486 16.8174ZM35.3572 16.8169C36.4105 16.8169 37.1285 17.5371 37.1285 18.5942L37.1285 30.2222C37.1285 31.2798 36.4105 32 35.3572 32L27.5771 32C26.5231 32 25.8059 31.2798 25.8059 30.2222L25.8059 18.5942C25.8059 17.5371 26.5231 16.8169 27.5771 16.8169L35.3572 16.8169ZM50.491 16.8174C51.4557 16.8174 52.2631 17.605 52.2631 18.5269L52.2631 22.4409L48.3618 22.4409L48.3618 20.3257C48.3618 20.1909 48.2493 20.0791 48.1598 20.0791L45.3127 20.0791C45.1779 20.0791 45.066 20.1909 45.066 20.3257L45.066 28.4912C45.066 28.626 45.1779 28.7153 45.3127 28.7153L48.1598 28.7153C48.2493 28.7153 48.3618 28.626 48.3618 28.4912L48.3618 26.3311L52.2631 26.3311L52.2631 30.2676C52.2631 31.2578 51.4557 31.9995 50.491 31.9995L42.8906 31.9995C41.9266 31.9995 41.1641 31.2578 41.1641 30.2676L41.1641 18.5269C41.1641 17.605 41.9266 16.8174 42.8906 16.8174L50.491 16.8174ZM55.1187 0C55.4053 0 55.6864 0.0288086 55.9628 0.0786133L55.9628 0.074707L56.0226 0.0878906C56.053 0.09375 56.0825 0.101562 56.1129 0.108398C56.2175 0.130371 56.3213 0.15625 56.4235 0.186035C56.4706 0.199707 56.517 0.212891 56.5641 0.228516C56.6527 0.257324 56.7397 0.289062 56.8276 0.322754C56.8732 0.340332 56.9187 0.356445 56.9641 0.375977C57.0831 0.427246 57.2006 0.481445 57.3147 0.54248C57.3643 0.568848 57.4114 0.598633 57.4609 0.626465C57.5311 0.666504 57.6014 0.708008 57.6693 0.752441C57.7245 0.787598 57.7771 0.825195 57.8314 0.861816C57.8921 0.905273 57.9513 0.950195 58.0104 0.996582C58.063 1.03662 58.115 1.07764 58.1653 1.12012C58.23 1.17529 58.2915 1.23291 58.3538 1.29248C58.3896 1.32617 58.428 1.35645 58.4631 1.39258C59.3864 2.31689 59.8479 3.53223 59.8479 4.74854L59.8519 4.74854L59.8639 23.1377L63.7875 16.8174L68.1366 16.8174L63.7643 23.4077L68.3163 31.9995L64.0566 31.9995L61.0969 26.1968L59.8639 28.1987L59.8639 31.9995L55.9628 31.9995L55.9628 4.74854C55.9619 4.53223 55.8789 4.31445 55.7144 4.14941C55.4995 3.93311 55.2479 3.90186 55.1187 3.90186C54.9861 3.90186 54.7377 3.93311 54.5221 4.14941L53.8121 4.86475L51.0609 7.62158L48.3121 4.86475L47.5989 4.14941C47.3842 3.93311 47.1326 3.90186 47.0023 3.90186C46.873 3.90186 46.6222 3.93311 46.4066 4.14941C46.0776 4.47949 46.0776 5.01758 46.4066 5.34521L47.1198 6.06104L49.8678 8.81836L51.0609 10.0146L52.2532 8.81836L54.6666 6.3999L54.6666 11.916L51.0609 15.5337L43.6554 8.10547C41.8123 6.25293 41.8123 3.2417 43.6554 1.39258C44.5498 0.494141 45.7374 0 47.0023 0C48.2657 0 49.4557 0.494141 50.351 1.39258L51.0609 2.10449L51.7709 1.39258C52.6653 0.494141 53.8528 0 55.1187 0ZM74.7952 16.8174L74.7952 22.6201L78.4951 22.6201L78.4951 16.8174L82.3962 16.8174L82.3962 31.9995L78.4951 31.9995L78.4951 25.9717L74.7952 25.9717L74.7952 31.9995L70.894 31.9995L70.894 16.8174L74.7952 16.8174ZM96.1174 16.8169C97.1708 16.8169 97.8888 17.5371 97.8888 18.5942L97.8888 30.2222C97.8888 31.2798 97.1708 32 96.1174 32L88.3383 32C87.2841 32 86.5669 31.2798 86.5669 30.2222L86.5669 18.5942C86.5669 17.5371 87.2841 16.8169 88.3383 16.8169L96.1174 16.8169ZM105.938 16.8174L105.938 28.7153L110.759 28.7153L110.759 31.9995L102.06 31.9995L102.06 16.8174L105.938 16.8174ZM118.023 16.8174L121.072 23.9019L123.875 16.8174L128 16.8174L128 31.9995L124.323 31.9995L124.323 23.25L121.767 29.2778L120.242 29.2778L117.665 23.4077L117.665 31.9995L114.077 31.9995L114.077 16.8174L118.023 16.8174ZM32.9806 20.1011L29.9091 20.1011C29.8188 20.1011 29.707 20.2139 29.707 20.3486L29.707 28.5132C29.707 28.6265 29.8188 28.7153 29.9091 28.7153L32.9806 28.7153C33.1147 28.7153 33.2273 28.6265 33.2273 28.5132L33.2273 20.3486C33.2273 20.2139 33.1147 20.1011 32.9806 20.1011ZM93.7408 20.1011L90.6694 20.1011C90.58 20.1011 90.4681 20.2139 90.4681 20.3486L90.4681 28.5132C90.4681 28.6265 90.58 28.7153 90.6694 28.7153L93.7408 28.7153C93.875 28.7153 93.9875 28.6265 93.9875 28.5132L93.9875 20.3486C93.9875 20.2139 93.875 20.1011 93.7408 20.1011Z" fill="#FFFFFF" fill-opacity="1.000000" fill-rule="evenodd"/>
	</g>
</svg>
