<svg width="16.000000" height="16.000000" viewBox="0 0 16 16" fill="none" xmlns="http://www.w3.org/2000/svg" xmlns:xlink="http://www.w3.org/1999/xlink">
	<desc>
			Created with Pixso.
	</desc>
	<defs>
		<clipPath id="clip2_36">
			<rect id="IMAGE" width="16.000000" height="16.000000" fill="white" fill-opacity="0"/>
		</clipPath>
	</defs>
	<g clip-path="url(#clip2_36)">
		<path id="Combined-Shape" d="M4.63928 10.5956L12.0234 14.8859C10.8401 15.597 9.46741 16 8 16C6.79297 16 5.65698 15.7393 4.63928 15.2415L4.63928 10.5956ZM4.04736 6.39978L4.04736 14.9331C1.82263 13.7005 0.284302 11.4012 0.0476074 8.72272L4.04736 6.39978ZM16 7.94025L16 8.01135C16 10.7136 14.651 13.1077 12.5919 14.5299L8.59216 12.2307L16 7.94025ZM11.9529 1.06665C14.1776 2.29926 15.7159 4.59851 15.9526 7.27704L11.9529 9.59998L11.9529 1.06665ZM3.40808 1.4696L7.40784 3.76886L0 8.03558L0 8.01184C0 5.28595 1.349 2.89185 3.40808 1.4696ZM8.00049 0C9.20752 0 10.3435 0.260742 11.3612 0.758545L11.3612 5.38074L3.97705 1.09039C5.1604 0.402954 6.53308 0 8.00049 0Z" fill="#FFFFFF" fill-opacity="1.000000" fill-rule="evenodd"/>
	</g>
</svg>
