<svg width="24.000000" height="24.000000" viewBox="0 0 24 24" fill="none" xmlns="http://www.w3.org/2000/svg" xmlns:xlink="http://www.w3.org/1999/xlink">
	<desc>
			Created with Pixso.
	</desc>
	<defs>
		<clipPath id="clip2_418">
			<rect id="IMAGE" width="24.000000" height="24.000000" fill="white" fill-opacity="0"/>
		</clipPath>
	</defs>
	<g clip-path="url(#clip2_418)">
		<path id="Shape" d="M12 5.76807C8.56384 5.76807 5.76831 8.56396 5.76831 12C5.76831 15.436 8.56384 18.2295 12 18.2295C15.4362 18.2295 18.2294 15.4336 18.2294 12C18.2317 8.56396 15.4362 5.76807 12 5.76807ZM12 15.8535C9.87427 15.8535 8.14636 14.126 8.14636 12C8.14636 9.87402 9.87427 8.14648 12 8.14648C14.1257 8.14648 15.8536 9.87402 15.8536 12C15.8536 14.126 14.1257 15.8535 12 15.8535ZM17.0936 0L6.90637 0C3.09888 0 0 3.09912 0 6.90625L0 17.0938C0 20.9009 3.09888 24 6.90637 24L17.0936 24C20.9011 24 24 20.9009 24 17.0938L24 6.90625C24 3.09912 20.9036 0 17.0936 0ZM21.6243 17.0938C21.6243 19.5908 19.5907 21.6221 17.0936 21.6221L6.90637 21.6221C4.4093 21.6221 2.37817 19.5908 2.37817 17.0938L2.37817 6.90625C2.37817 4.40918 4.4093 2.37793 6.90637 2.37793L17.0936 2.37793C19.5907 2.37793 21.6218 4.40918 21.6218 6.90625L21.6218 17.0938L21.6243 17.0938ZM18.3167 3.96777C17.4188 3.96777 16.6859 4.69824 16.6859 5.59814C16.6859 6.49609 17.4164 7.229 18.3167 7.229C19.2146 7.229 19.9474 6.49854 19.9474 5.59814C19.9474 4.69824 19.2146 3.96777 18.3167 3.96777Z" fill="#C0C0C0" fill-opacity="1.000000" fill-rule="nonzero"/>
	</g>
</svg>
