<svg width="32.000000" height="16.000000" viewBox="0 0 32 16" fill="none" xmlns="http://www.w3.org/2000/svg" xmlns:xlink="http://www.w3.org/1999/xlink">
	<desc>
			Created with Pixso.
	</desc>
	<defs>
		<clipPath id="clip2_30">
			<rect id="IMAGE" width="32.000000" height="16.000000" fill="white" fill-opacity="0"/>
		</clipPath>
	</defs>
	<g clip-path="url(#clip2_30)">
		<path id="Combined-Shape" d="M28.8992 0C30.6117 0 32 1.39911 32 3.125L32 12.875C32 14.6009 30.6117 16 28.8992 16L3.10083 16C1.38831 16 0 14.6009 0 12.875L0 3.125C0 1.39911 1.38831 0 3.10083 0L28.8992 0ZM12.71 2.91101C12.0312 2.91101 11.428 3.0274 10.9001 3.26013C10.3722 3.49286 9.96216 3.82776 9.66992 4.26477C9.37769 4.70172 9.23169 5.21472 9.23169 5.80377C9.23169 6.43073 9.37537 6.93188 9.66284 7.30713C9.95044 7.68237 10.2944 7.96265 10.6951 8.14789C11.0957 8.33313 11.6165 8.52075 12.2574 8.71075C12.7288 8.84375 13.0988 8.9649 13.3674 9.0741C13.6361 9.18335 13.86 9.33301 14.0391 9.52301C14.2181 9.71301 14.3077 9.95526 14.3077 10.2498C14.3077 10.6108 14.1758 10.9029 13.9119 11.1261C13.6478 11.3494 13.2849 11.461 12.8231 11.461C12.3706 11.461 12.0148 11.3422 11.7555 11.1047C11.5067 10.8768 11.3643 10.5699 11.3282 10.1844L11.3242 10.1357L9.20337 10.1357L9.20496 10.2006C9.22473 10.7813 9.38916 11.2869 9.69824 11.7175C10.0187 12.164 10.4547 12.506 11.0061 12.7435C11.5576 12.981 12.1774 13.0997 12.8655 13.0997C13.5913 13.0997 14.2181 12.9644 14.7461 12.6936C15.2739 12.4229 15.6746 12.0595 15.9479 11.6035C16.2213 11.1475 16.3579 10.6535 16.3579 10.1215C16.3579 9.50403 16.2118 9.00525 15.9197 8.62524C15.6274 8.24524 15.2787 7.96027 14.8733 7.77026C14.468 7.58026 13.9448 7.39026 13.3038 7.20026C12.8325 7.05774 12.4673 6.93188 12.208 6.82263C11.9487 6.71338 11.7319 6.57086 11.5576 6.39514C11.3832 6.21936 11.296 5.99847 11.296 5.73248C11.296 5.35248 11.4115 5.06274 11.6425 4.86322C11.8734 4.66376 12.1821 4.56403 12.5686 4.56403C13.0116 4.56403 13.3674 4.6756 13.6361 4.89886C13.8936 5.11279 14.0363 5.38129 14.0643 5.70428L14.0674 5.74677L16.2449 5.74677L16.2399 5.68616C16.1627 4.8222 15.8132 4.14655 15.1914 3.65912C14.5552 3.1604 13.728 2.91101 12.71 2.91101ZM23.3943 2.91101C22.4705 2.91101 21.6221 3.12952 20.8491 3.56653C20.0762 4.00348 19.4635 4.60913 19.011 5.38336C18.5585 6.15765 18.3323 7.02924 18.3323 7.99823C18.3323 8.97675 18.5585 9.85315 19.011 10.6274C19.4635 11.4016 20.0762 12.0073 20.8491 12.4443C21.6221 12.8812 22.4705 13.0997 23.3943 13.0997C24.318 13.0997 25.1664 12.8812 25.9393 12.4443C26.7123 12.0073 27.3226 11.4016 27.7704 10.6274C28.2181 9.85315 28.442 8.97675 28.442 7.99823C28.442 7.02924 28.2181 6.15765 27.7704 5.38336C27.3226 4.60913 26.7147 4.00348 25.9464 3.56653C25.1782 3.12952 24.3274 2.91101 23.3943 2.91101ZM6.76245 3.05353L4.78284 3.05353L4.78284 13L6.76245 13L6.76245 3.05353ZM23.3943 4.70648C23.988 4.70648 24.5112 4.83948 24.9637 5.10553C25.4161 5.37152 25.7697 5.75385 26.0242 6.25262C26.2787 6.7514 26.406 7.33325 26.406 7.99823C26.406 8.66327 26.2787 9.2475 26.0242 9.75098C25.7697 10.2545 25.4161 10.6416 24.9637 10.9124C24.5112 11.1831 23.988 11.3185 23.3943 11.3185C22.8004 11.3185 22.2749 11.1831 21.8176 10.9124C21.3605 10.6416 21.0046 10.2545 20.7501 9.75098C20.4956 9.2475 20.3684 8.66327 20.3684 7.99823C20.3684 7.33325 20.4956 6.7514 20.7501 6.25262C21.0046 5.75385 21.3605 5.37152 21.8176 5.10553C22.2749 4.83948 22.8004 4.70648 23.3943 4.70648Z" fill="#FFFFFF" fill-opacity="1.000000" fill-rule="evenodd"/>
	</g>
</svg>
