<svg width="15.250000" height="16.000000" viewBox="0 0 15.25 16" fill="none" xmlns="http://www.w3.org/2000/svg" xmlns:xlink="http://www.w3.org/1999/xlink">
	<desc>
			Created with Pixso.
	</desc>
	<defs/>
	<path id="Combined-Shape" d="M7.99792 0C8.0625 0 8.11487 0.0523682 8.11487 0.116943L8.11487 0.23938C8.11487 0.303894 8.0625 0.356262 7.99792 0.356262L7.86365 0.356262L7.86365 0.750732C11.9644 0.876709 15.25 4.24072 15.25 8.37299C15.25 12.5856 11.8363 16 7.62537 16C3.41443 16 0 12.5856 0 8.37299C0 4.24103 3.28601 0.877075 7.38635 0.750793L7.38635 0.356262L7.25208 0.356262C7.1875 0.356262 7.13513 0.303894 7.13513 0.23938L7.13513 0.116943C7.13513 0.0523682 7.1875 0 7.25208 0L7.99792 0ZM7.81604 1.75061L7.81604 2.41986C7.81604 2.52539 7.73059 2.6109 7.625 2.6109C7.51953 2.6109 7.43396 2.52539 7.43396 2.41986L7.43396 1.75061C3.92664 1.8504 1.10315 4.67407 1.00378 8.18219L1.67285 8.18219C1.77832 8.18219 1.86401 8.26776 1.86401 8.37329C1.86401 8.47888 1.77832 8.56439 1.67285 8.56439L1.00378 8.56439C1.10364 12.0723 3.92688 14.8962 7.43396 14.996L7.43396 14.3268C7.43396 14.2213 7.51953 14.1356 7.625 14.1356C7.73059 14.1356 7.81604 14.2213 7.81604 14.3268L7.81604 14.996C11.3235 14.8965 14.1464 12.0725 14.2462 8.56439L13.5771 8.56439C13.4717 8.56439 13.3861 8.47888 13.3861 8.37329C13.3861 8.26776 13.4717 8.18219 13.5771 8.18219L14.2462 8.18219C14.1469 4.67377 11.3237 1.84998 7.81604 1.75061ZM7.625 8.01703C7.82166 8.01703 7.9812 8.17657 7.9812 8.37329C7.9812 8.39362 7.97852 8.41315 7.97522 8.43243L10.2411 10.4819C10.2992 10.5345 10.3412 10.6025 10.3621 10.6782L10.3927 10.7894C10.4077 10.8436 10.3613 10.8948 10.306 10.8854L10.1923 10.866C10.1149 10.8528 10.043 10.8179 9.98486 10.7653L7.71863 8.71552C7.6886 8.72382 7.65759 8.72955 7.625 8.72955C7.42834 8.72955 7.2688 8.57007 7.2688 8.37329C7.2688 8.17657 7.42834 8.01703 7.625 8.01703Z" fill="#FFFFFF" fill-opacity="1.000000" fill-rule="evenodd"/>
</svg>
