<svg width="24.000000" height="24.000000" viewBox="0 0 24 24" fill="none" xmlns="http://www.w3.org/2000/svg" xmlns:xlink="http://www.w3.org/1999/xlink">
	<desc>
			Created with Pixso.
	</desc>
	<defs>
		<clipPath id="clip2_413">
			<rect id="IMAGE" width="24.000000" height="24.000000" fill="white" fill-opacity="0"/>
		</clipPath>
	</defs>
	<g clip-path="url(#clip2_413)">
		<path id="Path" d="M24 4.55664C23.1169 4.94873 22.168 5.21191 21.1725 5.33252C22.1899 4.72363 22.9688 3.7583 23.3363 2.60938C22.3846 3.17432 21.3287 3.58301 20.2098 3.80518C19.313 2.84766 18.0322 2.25 16.6171 2.25C13.8965 2.25 11.6914 4.45215 11.6914 7.17285C11.6914 7.55957 11.7354 7.93555 11.8176 8.29492C7.72571 8.08887 4.09741 6.13086 1.67017 3.14941C1.2478 3.87646 1.00378 4.72363 1.00378 5.62598C1.00378 7.33496 1.87317 8.84033 3.19226 9.72363C2.38599 9.69873 1.62634 9.47656 0.962646 9.10645L0.962646 9.16943C0.962646 11.5557 2.66028 13.5439 4.91187 13.9966C4.50049 14.1089 4.06445 14.1694 3.61462 14.1694C3.29651 14.1694 2.98938 14.1392 2.69043 14.0815C3.3158 16.0371 5.13403 17.4604 7.28699 17.5015C5.60303 18.8208 3.48303 19.6079 1.17383 19.6079C0.776123 19.6079 0.386719 19.5859 0 19.5396C2.1803 20.9355 4.7666 21.75 7.54749 21.75C16.6034 21.75 21.5564 14.249 21.5564 7.74365C21.5564 7.5293 21.5509 7.31836 21.5427 7.10693C22.5054 6.41064 23.3418 5.54395 24 4.55664Z" fill="#C0C0C0" fill-opacity="1.000000" fill-rule="nonzero"/>
	</g>
</svg>
